<svg xmlns="http://www.w3.org/2000/svg" width="24" height="24" viewBox="0 0 24 24"><defs><style>.a{fill:#0c0c0c;}</style></defs><title>dashboard</title><rect class="a" width="11" height="15" rx="2"/><path class="a" d="M2,18.08H8a2,2,0,0,1,2,2V24a0,0,0,0,1,0,0H0a0,0,0,0,1,0,0V20.08A2,2,0,0,1,2,18.08Z"/><rect class="a" x="13" y="9" width="11" height="15" rx="2" transform="translate(37 33) rotate(180)"/><path class="a" d="M16,0h6a2,2,0,0,1,2,2V7a0,0,0,0,1,0,0H14a0,0,0,0,1,0,0V2A2,2,0,0,1,16,0Z" transform="translate(38 7) rotate(180)"/></svg>