<svg xmlns="http://www.w3.org/2000/svg" width="23.04" height="23.04" viewBox="0 0 23.04 23.04"><defs><style>.a{fill:#0c0c0c;}</style></defs><title>edit</title><path class="a" d="M6.47,23.17l-5.39.65a.43.43,0,0,1-.5-.5l.64-5.39a1.51,1.51,0,0,1,.43-.84l14-14,5.66,5.65-14,14A1.42,1.42,0,0,1,6.47,23.17Z" transform="translate(-0.58 -0.78)"></path><path class="a" d="M17.3,2.83h6a1,1,0,0,1,1,1V5.37a0,0,0,0,1,0,0h-8a0,0,0,0,1,0,0V3.83a1,1,0,0,1,1-1Z" transform="translate(8.27 -13.94) rotate(45)"></path></svg>