<svg xmlns="http://www.w3.org/2000/svg" width="22.55" height="24" viewBox="0 0 22.55 24"><defs><style>.a{fill:#0c0c0c;}</style></defs><title>editinfo</title><path class="a" d="M15.89,19.92l-2.48.3a.19.19,0,0,1-.23-.23l.29-2.48a.7.7,0,0,1,.2-.39l6.45-6.45,2.61,2.6-6.46,6.46A.63.63,0,0,1,15.89,19.92Z" transform="translate(-1)"/><path class="a" d="M21.41,10.56h1.68a1,1,0,0,1,1,1v.17a0,0,0,0,1,0,0H20.41a0,0,0,0,1,0,0v-.17A1,1,0,0,1,21.41,10.56Z" transform="translate(13.4 -12.47) rotate(45)"/><path class="a" d="M21,8V3a1,1,0,0,0-1-1H13.85a1,1,0,0,1-.95-.63,2,2,0,0,0-3.8,0A1,1,0,0,1,8.15,2H2A1,1,0,0,0,1,3V23a1,1,0,0,0,1,1H20a1,1,0,0,0,1-1V22a1,1,0,0,0-1-1h-.27a.92.92,0,0,0-.84.46A1,1,0,0,1,18,22H4a1,1,0,0,1-1-1V5A1,1,0,0,1,4,4H7A1,1,0,0,1,8,5,1,1,0,0,0,9,6h4a1,1,0,0,0,1-1,1,1,0,0,1,1-1h3a1,1,0,0,1,1,1V8a1,1,0,0,0,1,1h0A1,1,0,0,0,21,8ZM11,3a1,1,0,1,1,1-1A1,1,0,0,1,11,3Z" transform="translate(-1)"/></svg>