<svg xmlns="http://www.w3.org/2000/svg" width="24" height="16" viewBox="0 0 24 16"><defs><style>.a{fill:#0c0c0c;}</style></defs><title>eyeclosed</title><path class="a" d="M12,20C5.53,20,.42,12.62.21,12.31L0,12l.21-.31C.42,11.38,5.53,4,12,4s11.58,7.38,11.79,7.69L24,12l-.21.31C23.58,12.62,18.47,20,12,20ZM2.72,12c.89,1.19,4.76,6,9.28,6s8.39-4.81,9.28-6c-.89-1.19-4.76-6-9.28-6S3.61,10.81,2.72,12Z" transform="translate(0 -4)"/><path class="a" d="M12,20C5.53,20,.42,12.62.21,12.31L0,12l.21-.31C.42,11.38,5.53,4,12,4s11.58,7.38,11.79,7.69L24,12l-.21.31C23.58,12.62,18.47,20,12,20ZM1.28,12c1,1.38,5.5,6.93,10.72,6.93S21.69,13.38,22.72,12c-1-1.38-5.5-6.93-10.72-6.93S2.31,10.62,1.28,12Z" transform="translate(0 -4)"/><path class="a" d="M12,4C6,4,0,12,0,12a33.36,33.36,0,0,0,24,0S16,4,12,4Z" transform="translate(0 -4)"/></svg>