<svg xmlns="http://www.w3.org/2000/svg" width="24" height="23.86" viewBox="0 0 24 23.86"><defs><style>.a{fill:#0c0c0c;}</style></defs><title>sandbox2</title><path class="a" d="M24,6.75V18.81a1,1,0,0,1-.65.93l-10.65,4a2,2,0,0,1-1.4,0l-10.65-4A1,1,0,0,1,0,18.81V6.75a1,1,0,0,1,.72-1l8.39-2.4h0L10,3.14a2.52,2.52,0,0,0,1.48.48L10,4,3.16,6,12,8.53l1.06-.3L20.84,6,14,4l-1.45-.42A2.52,2.52,0,0,0,14,3.14l.88.25h0l8.39,2.4A1,1,0,0,1,24,6.75Z"/><path class="a" d="M8.12,0V.83a3.07,3.07,0,0,0,1,2.24h0a3.3,3.3,0,0,0,.91.61A3.19,3.19,0,0,0,11,4a2.74,2.74,0,0,0,.5,0h1A2.74,2.74,0,0,0,13,4a3.19,3.19,0,0,0,1-.28,3.3,3.3,0,0,0,.91-.61h0a3.07,3.07,0,0,0,1-2.24V0Zm7,.83a2.41,2.41,0,0,1-1.12,2,2.45,2.45,0,0,1-1,.4l-.31,0H11.31l-.31,0a2.45,2.45,0,0,1-1-.4,2.41,2.41,0,0,1-1.12-2V.71h6.24Z"/><path class="a" d="M13,3.24V6.07a.93.93,0,0,1-.93.93h-.14A.93.93,0,0,1,11,6.07V3.24l.31,0h1.38Z"/></svg>