<svg xmlns="http://www.w3.org/2000/svg" width="18" height="24" viewBox="0 0 18 24"><defs><style>.a{fill:#0c0c0c;}</style></defs><title>book</title><path class="a" d="M-10,3" transform="translate(-3)"/><path class="a" d="M9.56,12.5v0Z" transform="translate(-3)"/><path class="a" d="M19,24H5a2,2,0,0,1-2-2V2A2,2,0,0,1,5,0H19a2,2,0,0,1,2,1.92V22A2,2,0,0,1,19,24ZM5,2V22H19V2Z" transform="translate(-3)"/><path class="a" d="M11,2V14l-1-1h0a2.93,2.93,0,0,0-3,0H7L6,14V2H7V12H7a2.93,2.93,0,0,1,3,0h0V2Z" transform="translate(-3)"/></svg>