

<svg 
xmlns="http://www.w3.org/2000/svg" 
width="24" height="24" 
viewBox="0 0 24 24"
>
<defs>
<style>.a{fill:#0c0c0c;}</style>
</defs>
<title>dashboard</title><path class="a" d="M2,0h9a0,0,0,0,1,0,0V15a0,0,0,0,1,0,0H0a0,0,0,0,1,0,0V2A2,2,0,0,1,2,0Z"/>
<rect class="a" y="18.08" width="10" height="5.92"/><path class="a" d="M15,11h9a0,0,0,0,1,0,0V24a0,0,0,0,1,0,0H13a0,0,0,0,1,0,0V13A2,2,0,0,1,15,11Z" transform="translate(37 35) rotate(180)"/>
<rect class="a" x="14" width="10" height="8" transform="translate(38 8) rotate(180)"/>
</svg>