<svg xmlns="http://www.w3.org/2000/svg" width="24" height="16" viewBox="0 0 24 16"><defs><style>.a{fill:#0c0c0c;}</style></defs><title>eye</title><path class="a" d="M12,20C5.53,20,.42,12.62.21,12.31L0,12l.21-.31C.42,11.38,5.53,4,12,4s11.58,7.38,11.79,7.69L24,12l-.21.31C23.58,12.62,18.47,20,12,20ZM2.72,12c.89,1.19,4.76,6,9.28,6s8.39-4.81,9.28-6c-.89-1.19-4.76-6-9.28-6S3.61,10.81,2.72,12Z" transform="translate(0 -4)"/><path class="a" d="M12,15a3,3,0,1,1,3-3A3,3,0,0,1,12,15Zm0-4.61A1.61,1.61,0,1,0,13.61,12,1.61,1.61,0,0,0,12,10.39Z" transform="translate(0 -4)"/></svg>