<svg xmlns="http://www.w3.org/2000/svg" width="24" height="23.89" viewBox="0 0 24 23.89"><defs><style>.a{fill:#0c0c0c;}</style></defs><title>home</title><path class="a" d="M2.63,11V23.7a.3.3,0,0,0,.31.3h7V18.3a.3.3,0,0,1,.31-.3h3.54a.3.3,0,0,1,.31.3V24h7a.3.3,0,0,0,.31-.3V11Z" transform="translate(0 -0.11)"/><path class="a" d="M.1,10.48,11.79.19a.31.31,0,0,1,.42,0L23.9,10.48a.3.3,0,0,1-.21.52H.31A.3.3,0,0,1,.1,10.48Z" transform="translate(0 -0.11)"/><rect class="a" x="19.29" y="2.89" width="2.08" height="6"/></svg>