<svg xmlns="http://www.w3.org/2000/svg" width="22" height="22" viewBox="0 0 22 22"><defs><style>.a{fill:#0c0c0c;}</style></defs><title>icons</title><path class="a" d="M9.78,11H1.22A1.22,1.22,0,0,1,0,9.78V1.22A1.22,1.22,0,0,1,1.22,0H9.78A1.22,1.22,0,0,1,11,1.22V9.78A1.22,1.22,0,0,1,9.78,11ZM3.67,8.56H7.33A1.23,1.23,0,0,0,8.56,7.33V3.67A1.23,1.23,0,0,0,7.33,2.44H3.67A1.23,1.23,0,0,0,2.44,3.67V7.33A1.23,1.23,0,0,0,3.67,8.56Z"/><path class="a" d="M11.33,22H6.67A.67.67,0,0,1,6,21.33V16.67A.67.67,0,0,1,6.67,16h4.66a.67.67,0,0,1,.67.67v4.66A.67.67,0,0,1,11.33,22ZM8,20.67h2a.67.67,0,0,0,.67-.67V18a.67.67,0,0,0-.67-.67H8a.67.67,0,0,0-.67.67v2A.67.67,0,0,0,8,20.67Z"/><path class="a" d="M21.11,14H14.89a.89.89,0,0,1-.89-.89V6.89A.89.89,0,0,1,14.89,6h6.22a.89.89,0,0,1,.89.89v6.22A.89.89,0,0,1,21.11,14Zm-4.44-1.78h2.66a.89.89,0,0,0,.89-.89V8.67a.89.89,0,0,0-.89-.89H16.67a.89.89,0,0,0-.89.89v2.66A.89.89,0,0,0,16.67,12.22Z"/></svg>